<svg width="93" height="34" viewBox="0 0 93 34" fill="none" xmlns="http://www.w3.org/2000/svg">
<path fill-rule="evenodd" clip-rule="evenodd" d="M15.7348 12.0202C10.5061 8.49357 5.59355 4.52246 1.05094 0.150348L1.05145 0.149823C0.574508 -0.296553 -0.310285 0.344356 0.110202 0.895944C4.6455 6.65346 10.1665 11.557 16.4209 15.3824C27.4204 22.2975 39.8628 26.6274 52.8236 28.0501C59.3312 28.7894 65.91 28.7796 72.4315 28.0209C75.9301 27.5804 79.398 26.9279 82.8165 26.068L82.8747 26.0275C84.293 25.0421 85.713 24.0616 87.1383 23.0888C88.0271 23.7051 89.1577 22.8 88.8114 21.9522C89.3586 21.5824 89.9067 21.214 90.456 20.8469L91.5304 23.3863C88.6707 24.4322 85.762 25.3271 82.8165 26.068L79.3163 28.506C79.5572 28.438 79.82 28.4995 80.0045 28.6776C80.2301 28.8955 80.2853 29.2368 80.1405 29.5185C79.5928 30.4587 78.9689 31.3151 78.3377 32.1815C78.1251 32.4733 77.9116 32.7663 77.6999 33.064L75.3851 31.3705C74.9664 31.8368 74.8772 32.5334 75.2061 33.0932C75.6023 33.7677 76.4637 34.0029 77.1572 33.626C78.484 32.8598 79.7513 31.9938 80.948 31.0356L84.5478 28.4975C87.0035 26.7702 89.4426 25.0184 91.8652 23.2422C92.4562 22.8726 92.6977 22.1324 92.4359 21.4927C92.1695 20.8502 91.4646 20.5116 90.7911 20.7025C90.0394 20.9991 89.2833 21.2832 88.5232 21.5546C87.0404 20.169 85.4156 18.9437 83.6756 17.8991C82.7649 17.3666 81.8188 16.8971 80.8439 16.4937C80.0655 16.0487 79.1747 15.8388 78.2795 15.8895C78.0136 15.9651 77.7978 16.1596 77.695 16.4161C77.5921 16.6727 77.6139 16.9624 77.754 17.2007C78.3513 17.8262 79.0863 18.3037 79.9006 18.5951C80.6688 18.9862 81.4198 19.4128 82.1716 19.8398C82.2341 19.8753 82.2967 19.9108 82.3592 19.9463C83.6639 20.682 84.9279 21.4871 86.1458 22.3581C80.8671 24.0425 75.4154 25.1254 69.8952 25.5823C57.1993 26.6962 44.4447 24.9785 32.5523 20.5532C26.6389 18.3493 20.9979 15.4871 15.7348 12.0202ZM77.7566 29.5315C78.1981 29.2268 78.6477 28.9338 79.1051 28.653L79.3163 28.506C79.2625 28.5211 79.2098 28.5428 79.1593 28.571C78.6728 28.8743 78.2098 29.1976 77.7566 29.5315ZM77.7566 29.5315C76.932 30.1008 76.136 30.7113 75.3717 31.3607L75.3851 31.3705C75.4709 31.2751 75.5704 31.1892 75.683 31.1162C75.966 30.902 76.2446 30.6864 76.5221 30.4716C76.9324 30.154 77.3404 29.8383 77.7566 29.5315Z" fill="#8082A5"/>
</svg>
