<svg width="147" height="146" viewBox="0 0 147 146" fill="none" xmlns="http://www.w3.org/2000/svg">
<path d="M81.3413 38.3018L81.7866 40.2188L83.0728 38.7285L105.798 12.3848L97.0278 46.0527L96.5317 47.957L98.3628 47.2354L130.727 34.4707L107.316 60.207L105.992 61.6621L107.949 61.874L142.539 65.6113L109.848 77.5205L108 78.1934L109.633 79.29L138.523 98.6748L104.044 94.0273L102.094 93.7646L103.032 95.4951L119.602 126.084L91.2339 105.946L89.6294 104.808L89.6558 106.775L90.1128 141.562L74.3521 110.547L73.4605 108.793L72.5689 110.547L56.8071 141.562L57.2651 106.775L57.2915 104.808L55.687 105.946L27.3179 126.084L43.8892 95.4951L44.8267 93.7646L42.8765 94.0273L8.39698 98.6748L37.2876 79.29L38.9214 78.1934L37.0728 77.5205L4.38136 65.6113L38.9722 61.874L40.9292 61.6621L39.605 60.207L16.1929 34.4707L48.5581 47.2354L50.3892 47.957L49.8931 46.0527L41.1216 12.3848L63.8482 38.7285L65.1343 40.2188L65.5796 38.3018L73.4605 4.41309L81.3413 38.3018Z" stroke="#6A6C8E" stroke-width="2"/>
</svg>
